<svg width="133" height="36" viewBox="0 0 133 36" fill="none" xmlns="http://www.w3.org/2000/svg">
<path d="M10.62 0.489999L6.48 8.464V13H4.428V8.464L0.27 0.489999H2.556L5.454 6.628L8.352 0.489999H10.62ZM19.7904 10.444H14.5524L13.6524 13H11.5104L15.9924 0.471999H18.3684L22.8504 13H20.6904L19.7904 10.444ZM19.2144 8.77L17.1804 2.956L15.1284 8.77H19.2144ZM33.8532 4.09C33.5292 3.466 33.0792 2.998 32.5032 2.686C31.9272 2.362 31.2612 2.2 30.5052 2.2C29.6772 2.2 28.9392 2.386 28.2912 2.758C27.6432 3.13 27.1332 3.658 26.7612 4.342C26.4012 5.026 26.2212 5.818 26.2212 6.718C26.2212 7.618 26.4012 8.416 26.7612 9.112C27.1332 9.796 27.6432 10.324 28.2912 10.696C28.9392 11.068 29.6772 11.254 30.5052 11.254C31.6212 11.254 32.5272 10.942 33.2232 10.318C33.9192 9.694 34.3452 8.848 34.5012 7.78H29.8032V6.142H36.6972V7.744C36.5652 8.716 36.2172 9.61 35.6532 10.426C35.1012 11.242 34.3752 11.896 33.4752 12.388C32.5872 12.868 31.5972 13.108 30.5052 13.108C29.3292 13.108 28.2552 12.838 27.2832 12.298C26.3112 11.746 25.5372 10.984 24.9612 10.012C24.3972 9.04 24.1152 7.942 24.1152 6.718C24.1152 5.494 24.3972 4.396 24.9612 3.424C25.5372 2.452 26.3112 1.696 27.2832 1.156C28.2672 0.603999 29.3412 0.327999 30.5052 0.327999C31.8372 0.327999 33.0192 0.657999 34.0512 1.318C35.0952 1.966 35.8512 2.89 36.3192 4.09H33.8532ZM44.4271 13.126C43.2631 13.126 42.1891 12.856 41.2051 12.316C40.2331 11.764 39.4591 11.002 38.8831 10.03C38.3191 9.046 38.0371 7.942 38.0371 6.718C38.0371 5.494 38.3191 4.396 38.8831 3.424C39.4591 2.452 40.2331 1.696 41.2051 1.156C42.1891 0.603999 43.2631 0.327999 44.4271 0.327999C45.6031 0.327999 46.6771 0.603999 47.6491 1.156C48.6331 1.696 49.4071 2.452 49.9711 3.424C50.5351 4.396 50.8171 5.494 50.8171 6.718C50.8171 7.942 50.5351 9.046 49.9711 10.03C49.4071 11.002 48.6331 11.764 47.6491 12.316C46.6771 12.856 45.6031 13.126 44.4271 13.126ZM44.4271 11.344C45.2551 11.344 45.9931 11.158 46.6411 10.786C47.2891 10.402 47.7931 9.862 48.1531 9.166C48.5251 8.458 48.7111 7.642 48.7111 6.718C48.7111 5.794 48.5251 4.984 48.1531 4.288C47.7931 3.592 47.2891 3.058 46.6411 2.686C45.9931 2.314 45.2551 2.128 44.4271 2.128C43.5991 2.128 42.8611 2.314 42.2131 2.686C41.5651 3.058 41.0551 3.592 40.6831 4.288C40.3231 4.984 40.1431 5.794 40.1431 6.718C40.1431 7.642 40.3231 8.458 40.6831 9.166C41.0551 9.862 41.5651 10.402 42.2131 10.786C42.8611 11.158 43.5991 11.344 44.4271 11.344ZM65.5941 0.489999V2.164H62.2641V13H60.2121V2.164H56.8641V0.489999H65.5941ZM73.3783 13.126C72.2143 13.126 71.1403 12.856 70.1563 12.316C69.1843 11.764 68.4103 11.002 67.8343 10.03C67.2703 9.046 66.9883 7.942 66.9883 6.718C66.9883 5.494 67.2703 4.396 67.8343 3.424C68.4103 2.452 69.1843 1.696 70.1563 1.156C71.1403 0.603999 72.2143 0.327999 73.3783 0.327999C74.5543 0.327999 75.6283 0.603999 76.6003 1.156C77.5843 1.696 78.3583 2.452 78.9223 3.424C79.4863 4.396 79.7683 5.494 79.7683 6.718C79.7683 7.942 79.4863 9.046 78.9223 10.03C78.3583 11.002 77.5843 11.764 76.6003 12.316C75.6283 12.856 74.5543 13.126 73.3783 13.126ZM73.3783 11.344C74.2063 11.344 74.9443 11.158 75.5923 10.786C76.2403 10.402 76.7443 9.862 77.1043 9.166C77.4763 8.458 77.6623 7.642 77.6623 6.718C77.6623 5.794 77.4763 4.984 77.1043 4.288C76.7443 3.592 76.2403 3.058 75.5923 2.686C74.9443 2.314 74.2063 2.128 73.3783 2.128C72.5503 2.128 71.8123 2.314 71.1643 2.686C70.5163 3.058 70.0063 3.592 69.6343 4.288C69.2743 4.984 69.0943 5.794 69.0943 6.718C69.0943 7.642 69.2743 8.458 69.6343 9.166C70.0063 9.862 70.5163 10.402 71.1643 10.786C71.8123 11.158 72.5503 11.344 73.3783 11.344ZM88.2855 13L85.4055 7.996H83.8395V13H81.7875V0.489999H86.1075C87.0675 0.489999 87.8775 0.657999 88.5375 0.993999C89.2095 1.33 89.7075 1.78 90.0315 2.344C90.3675 2.908 90.5355 3.538 90.5355 4.234C90.5355 5.05 90.2955 5.794 89.8155 6.466C89.3475 7.126 88.6215 7.576 87.6375 7.816L90.7335 13H88.2855ZM83.8395 6.358H86.1075C86.8755 6.358 87.4515 6.166 87.8355 5.782C88.2315 5.398 88.4295 4.882 88.4295 4.234C88.4295 3.586 88.2375 3.082 87.8535 2.722C87.4695 2.35 86.8875 2.164 86.1075 2.164H83.8395V6.358ZM99.6585 13L96.7785 7.996H95.2125V13H93.1605V0.489999H97.4805C98.4405 0.489999 99.2505 0.657999 99.9105 0.993999C100.583 1.33 101.081 1.78 101.405 2.344C101.741 2.908 101.909 3.538 101.909 4.234C101.909 5.05 101.669 5.794 101.189 6.466C100.721 7.126 99.9945 7.576 99.0105 7.816L102.107 13H99.6585ZM95.2125 6.358H97.4805C98.2485 6.358 98.8245 6.166 99.2085 5.782C99.6045 5.398 99.8025 4.882 99.8025 4.234C99.8025 3.586 99.6105 3.082 99.2265 2.722C98.8425 2.35 98.2605 2.164 97.4805 2.164H95.2125V6.358ZM106.586 2.146V5.818H110.906V7.492H106.586V11.326H111.446V13H104.534V0.471999H111.446V2.146H106.586ZM118.095 13.126C117.255 13.126 116.499 12.982 115.827 12.694C115.155 12.394 114.627 11.974 114.243 11.434C113.859 10.894 113.667 10.264 113.667 9.544H115.863C115.911 10.084 116.121 10.528 116.493 10.876C116.877 11.224 117.411 11.398 118.095 11.398C118.803 11.398 119.355 11.23 119.751 10.894C120.147 10.546 120.345 10.102 120.345 9.562C120.345 9.142 120.219 8.8 119.967 8.536C119.727 8.272 119.421 8.068 119.049 7.924C118.689 7.78 118.185 7.624 117.537 7.456C116.721 7.24 116.055 7.024 115.539 6.808C115.035 6.58 114.603 6.232 114.243 5.764C113.883 5.296 113.703 4.672 113.703 3.892C113.703 3.172 113.883 2.542 114.243 2.002C114.603 1.462 115.107 1.048 115.755 0.76C116.403 0.471999 117.153 0.327999 118.005 0.327999C119.217 0.327999 120.207 0.633999 120.975 1.246C121.755 1.846 122.187 2.674 122.271 3.73H120.003C119.967 3.274 119.751 2.884 119.355 2.56C118.959 2.236 118.437 2.074 117.789 2.074C117.201 2.074 116.721 2.224 116.349 2.524C115.977 2.824 115.791 3.256 115.791 3.82C115.791 4.204 115.905 4.522 116.133 4.774C116.373 5.014 116.673 5.206 117.033 5.35C117.393 5.494 117.885 5.65 118.509 5.818C119.337 6.046 120.009 6.274 120.525 6.502C121.053 6.73 121.497 7.084 121.857 7.564C122.229 8.032 122.415 8.662 122.415 9.454C122.415 10.09 122.241 10.69 121.893 11.254C121.557 11.818 121.059 12.274 120.399 12.622C119.751 12.958 118.983 13.126 118.095 13.126ZM2.988 18.454V26.392C2.988 27.508 3.258 28.336 3.798 28.876C4.35 29.416 5.112 29.686 6.084 29.686C7.044 29.686 7.794 29.416 8.334 28.876C8.886 28.336 9.162 27.508 9.162 26.392V18.454H10.8V26.374C10.8 27.418 10.59 28.3 10.17 29.02C9.75 29.728 9.18 30.256 8.46 30.604C7.752 30.952 6.954 31.126 6.066 31.126C5.178 31.126 4.374 30.952 3.654 30.604C2.946 30.256 2.382 29.728 1.962 29.02C1.554 28.3 1.35 27.418 1.35 26.374V18.454H2.988ZM18.6625 24.736L22.5145 31H20.6605L17.6545 26.104L14.7925 31H12.9745L16.8085 24.736L12.9565 18.454H14.7925L17.8165 23.368L20.6965 18.454H22.5325L18.6625 24.736ZM30.8322 14.044L25.9002 34.06H24.2802L29.1942 14.044H30.8322ZM34.8747 18.454V26.392C34.8747 27.508 35.1447 28.336 35.6847 28.876C36.2367 29.416 36.9987 29.686 37.9707 29.686C38.9307 29.686 39.6807 29.416 40.2207 28.876C40.7727 28.336 41.0487 27.508 41.0487 26.392V18.454H42.6867V26.374C42.6867 27.418 42.4767 28.3 42.0567 29.02C41.6367 29.728 41.0667 30.256 40.3467 30.604C39.6387 30.952 38.8407 31.126 37.9527 31.126C37.0647 31.126 36.2607 30.952 35.5407 30.604C34.8327 30.256 34.2687 29.728 33.8487 29.02C33.4407 28.3 33.2367 27.418 33.2367 26.374V18.454H34.8747ZM47.0572 18.454V31H45.4192V18.454H47.0572ZM58.5537 18.454C59.9217 18.454 61.1037 18.712 62.0997 19.228C63.1077 19.732 63.8757 20.458 64.4037 21.406C64.9437 22.354 65.2137 23.47 65.2137 24.754C65.2137 26.038 64.9437 27.154 64.4037 28.102C63.8757 29.038 63.1077 29.758 62.0997 30.262C61.1037 30.754 59.9217 31 58.5537 31H54.6477V18.454H58.5537ZM58.5537 29.65C60.1737 29.65 61.4097 29.224 62.2617 28.372C63.1137 27.508 63.5397 26.302 63.5397 24.754C63.5397 23.194 63.1077 21.976 62.2437 21.1C61.3917 20.224 60.1617 19.786 58.5537 19.786H56.2857V29.65H58.5537ZM76.3743 25.69C76.3743 26.002 76.3563 26.332 76.3203 26.68H68.4363C68.4963 27.652 68.8263 28.414 69.4263 28.966C70.0383 29.506 70.7763 29.776 71.6403 29.776C72.3483 29.776 72.9363 29.614 73.4043 29.29C73.8843 28.954 74.2203 28.51 74.4123 27.958H76.1763C75.9123 28.906 75.3843 29.68 74.5923 30.28C73.8003 30.868 72.8163 31.162 71.6403 31.162C70.7043 31.162 69.8643 30.952 69.1203 30.532C68.3883 30.112 67.8123 29.518 67.3923 28.75C66.9723 27.97 66.7623 27.07 66.7623 26.05C66.7623 25.03 66.9663 24.136 67.3743 23.368C67.7823 22.6 68.3523 22.012 69.0843 21.604C69.8283 21.184 70.6803 20.974 71.6403 20.974C72.5763 20.974 73.4043 21.178 74.1243 21.586C74.8443 21.994 75.3963 22.558 75.7803 23.278C76.1763 23.986 76.3743 24.79 76.3743 25.69ZM74.6823 25.348C74.6823 24.724 74.5443 24.19 74.2683 23.746C73.9923 23.29 73.6143 22.948 73.1343 22.72C72.6663 22.48 72.1443 22.36 71.5683 22.36C70.7403 22.36 70.0323 22.624 69.4443 23.152C68.8683 23.68 68.5383 24.412 68.4543 25.348H74.6823ZM82.0284 31.162C81.2724 31.162 80.5944 31.036 79.9944 30.784C79.3944 30.52 78.9204 30.16 78.5724 29.704C78.2244 29.236 78.0324 28.702 77.9964 28.102H79.6884C79.7364 28.594 79.9644 28.996 80.3724 29.308C80.7924 29.62 81.3384 29.776 82.0104 29.776C82.6344 29.776 83.1264 29.638 83.4864 29.362C83.8464 29.086 84.0264 28.738 84.0264 28.318C84.0264 27.886 83.8344 27.568 83.4504 27.364C83.0664 27.148 82.4724 26.938 81.6684 26.734C80.9364 26.542 80.3364 26.35 79.8684 26.158C79.4124 25.954 79.0164 25.66 78.6804 25.276C78.3564 24.88 78.1944 24.364 78.1944 23.728C78.1944 23.224 78.3444 22.762 78.6444 22.342C78.9444 21.922 79.3704 21.592 79.9224 21.352C80.4744 21.1 81.1044 20.974 81.8124 20.974C82.9044 20.974 83.7864 21.25 84.4584 21.802C85.1304 22.354 85.4904 23.11 85.5384 24.07H83.9004C83.8644 23.554 83.6544 23.14 83.2704 22.828C82.8984 22.516 82.3944 22.36 81.7584 22.36C81.1704 22.36 80.7024 22.486 80.3544 22.738C80.0064 22.99 79.8324 23.32 79.8324 23.728C79.8324 24.052 79.9344 24.322 80.1384 24.538C80.3544 24.742 80.6184 24.91 80.9304 25.042C81.2544 25.162 81.6984 25.3 82.2624 25.456C82.9704 25.648 83.5464 25.84 83.9904 26.032C84.4344 26.212 84.8124 26.488 85.1244 26.86C85.4484 27.232 85.6164 27.718 85.6284 28.318C85.6284 28.858 85.4784 29.344 85.1784 29.776C84.8784 30.208 84.4524 30.55 83.9004 30.802C83.3604 31.042 82.7364 31.162 82.0284 31.162ZM88.7867 19.534C88.4747 19.534 88.2107 19.426 87.9947 19.21C87.7787 18.994 87.6707 18.73 87.6707 18.418C87.6707 18.106 87.7787 17.842 87.9947 17.626C88.2107 17.41 88.4747 17.302 88.7867 17.302C89.0867 17.302 89.3387 17.41 89.5427 17.626C89.7587 17.842 89.8667 18.106 89.8667 18.418C89.8667 18.73 89.7587 18.994 89.5427 19.21C89.3387 19.426 89.0867 19.534 88.7867 19.534ZM89.5787 21.136V31H87.9407V21.136H89.5787ZM96.4384 20.974C97.2904 20.974 98.0344 21.16 98.6704 21.532C99.3184 21.904 99.7984 22.372 100.11 22.936V21.136H101.766V31.216C101.766 32.116 101.574 32.914 101.19 33.61C100.806 34.318 100.254 34.87 99.5344 35.266C98.8264 35.662 97.9984 35.86 97.0504 35.86C95.7544 35.86 94.6744 35.554 93.8104 34.942C92.9464 34.33 92.4364 33.496 92.2804 32.44H93.9004C94.0804 33.04 94.4524 33.52 95.0164 33.88C95.5804 34.252 96.2584 34.438 97.0504 34.438C97.9504 34.438 98.6824 34.156 99.2464 33.592C99.8224 33.028 100.11 32.236 100.11 31.216V29.146C99.7864 29.722 99.3064 30.202 98.6704 30.586C98.0344 30.97 97.2904 31.162 96.4384 31.162C95.5624 31.162 94.7644 30.946 94.0444 30.514C93.3364 30.082 92.7784 29.476 92.3704 28.696C91.9624 27.916 91.7584 27.028 91.7584 26.032C91.7584 25.024 91.9624 24.142 92.3704 23.386C92.7784 22.618 93.3364 22.024 94.0444 21.604C94.7644 21.184 95.5624 20.974 96.4384 20.974ZM100.11 26.05C100.11 25.306 99.9604 24.658 99.6604 24.106C99.3604 23.554 98.9524 23.134 98.4364 22.846C97.9324 22.546 97.3744 22.396 96.7624 22.396C96.1504 22.396 95.5924 22.54 95.0884 22.828C94.5844 23.116 94.1824 23.536 93.8824 24.088C93.5824 24.64 93.4324 25.288 93.4324 26.032C93.4324 26.788 93.5824 27.448 93.8824 28.012C94.1824 28.564 94.5844 28.99 95.0884 29.29C95.5924 29.578 96.1504 29.722 96.7624 29.722C97.3744 29.722 97.9324 29.578 98.4364 29.29C98.9524 28.99 99.3604 28.564 99.6604 28.012C99.9604 27.448 100.11 26.794 100.11 26.05ZM109.34 20.956C110.54 20.956 111.512 21.322 112.256 22.054C113 22.774 113.372 23.818 113.372 25.186V31H111.752V25.42C111.752 24.436 111.506 23.686 111.014 23.17C110.522 22.642 109.85 22.378 108.998 22.378C108.134 22.378 107.444 22.648 106.928 23.188C106.424 23.728 106.172 24.514 106.172 25.546V31H104.534V21.136H106.172V22.54C106.496 22.036 106.934 21.646 107.486 21.37C108.05 21.094 108.668 20.956 109.34 20.956ZM125.048 25.69C125.048 26.002 125.03 26.332 124.994 26.68H117.11C117.17 27.652 117.5 28.414 118.1 28.966C118.712 29.506 119.45 29.776 120.314 29.776C121.022 29.776 121.61 29.614 122.078 29.29C122.558 28.954 122.894 28.51 123.086 27.958H124.85C124.586 28.906 124.058 29.68 123.266 30.28C122.474 30.868 121.49 31.162 120.314 31.162C119.378 31.162 118.538 30.952 117.794 30.532C117.062 30.112 116.486 29.518 116.066 28.75C115.646 27.97 115.436 27.07 115.436 26.05C115.436 25.03 115.64 24.136 116.048 23.368C116.456 22.6 117.026 22.012 117.758 21.604C118.502 21.184 119.354 20.974 120.314 20.974C121.25 20.974 122.078 21.178 122.798 21.586C123.518 21.994 124.07 22.558 124.454 23.278C124.85 23.986 125.048 24.79 125.048 25.69ZM123.356 25.348C123.356 24.724 123.218 24.19 122.942 23.746C122.666 23.29 122.288 22.948 121.808 22.72C121.34 22.48 120.818 22.36 120.242 22.36C119.414 22.36 118.706 22.624 118.118 23.152C117.542 23.68 117.212 24.412 117.128 25.348H123.356ZM128.848 22.738C129.136 22.174 129.544 21.736 130.072 21.424C130.612 21.112 131.266 20.956 132.034 20.956V22.648H131.602C129.766 22.648 128.848 23.644 128.848 25.636V31H127.21V21.136H128.848V22.738Z" fill="#333333"/>
</svg>
